<svg width="28" height="24" viewBox="0 0 28 24" fill="none" xmlns="http://www.w3.org/2000/svg">
<path d="M26.5592 16.7803H6.98926C6.61853 16.7803 6.26298 16.654 6.00083 16.4292C5.73869 16.2044 5.59141 15.8996 5.59141 15.5817C5.59141 15.2638 5.73869 14.9589 6.00083 14.7341C6.26298 14.5094 6.61853 14.3831 6.98926 14.3831H21.5828C22.5175 14.3831 23.4254 14.1154 24.1624 13.6225C24.8994 13.1296 25.4232 12.4396 25.6506 11.6623L27.9571 3.88343C28.0094 3.70653 28.014 3.52171 27.9704 3.34307C27.9267 3.16444 27.8361 2.9967 27.7054 2.85264C27.5695 2.7049 27.3949 2.58667 27.1958 2.50755C26.9966 2.42842 26.7785 2.39061 26.5592 2.39718H6.65378C6.36538 1.69774 5.83174 1.09191 5.12602 0.662747C4.42029 0.23358 3.57703 0.00208496 2.71183 0H1.39785C1.02712 0 0.67157 0.12628 0.409422 0.351059C0.147273 0.575838 0 0.880704 0 1.19859C0 1.51648 0.147273 1.82134 0.409422 2.04612C0.67157 2.2709 1.02712 2.39718 1.39785 2.39718H2.71183C3.03115 2.3892 3.34402 2.47525 3.59836 2.64099C3.8527 2.80673 4.03315 3.04217 4.10969 3.30811L4.19356 3.88343L6.61184 11.9859C5.49964 12.0288 4.45288 12.4488 3.70182 13.1535C2.95077 13.8582 2.55695 14.7898 2.607 15.7435C2.65704 16.6971 3.14686 17.5947 3.9687 18.2387C4.79053 18.8827 5.87706 19.2204 6.98926 19.1774H7.24088C7.01098 19.7206 6.93711 20.3032 7.02551 20.876C7.11392 21.4488 7.362 21.9949 7.74874 22.468C8.13549 22.9411 8.64952 23.3274 9.24729 23.5941C9.84506 23.8608 10.509 24 11.1828 24C11.8567 24 12.5206 23.8608 13.1184 23.5941C13.7161 23.3274 14.2302 22.9411 14.6169 22.468C15.0036 21.9949 15.2517 21.4488 15.3401 20.876C15.4285 20.3032 15.3547 19.7206 15.1248 19.1774H18.4237C18.1938 19.7206 18.1199 20.3032 18.2083 20.876C18.2967 21.4488 18.5448 21.9949 18.9316 22.468C19.3183 22.9411 19.8323 23.3274 20.4301 23.5941C21.0279 23.8608 21.6918 24 22.3656 24C23.0395 24 23.7034 23.8608 24.3012 23.5941C24.899 23.3274 25.413 22.9411 25.7997 22.468C26.1865 21.9949 26.4346 21.4488 26.523 20.876C26.6114 20.3032 26.5375 19.7206 26.3076 19.1774H26.5592C26.9299 19.1774 27.2855 19.0512 27.5476 18.8264C27.8098 18.6016 27.9571 18.2967 27.9571 17.9789C27.9571 17.661 27.8098 17.3561 27.5476 17.1313C27.2855 16.9065 26.9299 16.7803 26.5592 16.7803ZM24.77 4.79436L22.9388 11.075C22.8622 11.3409 22.6818 11.5764 22.4274 11.7421C22.1731 11.9078 21.8602 11.9939 21.5409 11.9859H9.47744L7.38066 4.79436H24.77ZM11.1828 21.5746C10.9064 21.5746 10.6361 21.5043 10.4062 21.3726C10.1763 21.2409 9.99718 21.0537 9.89138 20.8347C9.78557 20.6157 9.75789 20.3747 9.81183 20.1422C9.86577 19.9097 9.9989 19.6961 10.1944 19.5285C10.3899 19.3609 10.639 19.2467 10.9101 19.2005C11.1813 19.1542 11.4623 19.178 11.7178 19.2687C11.9732 19.3594 12.1915 19.513 12.3451 19.7101C12.4987 19.9072 12.5807 20.139 12.5807 20.376C12.5807 20.6939 12.4334 20.9988 12.1713 21.2236C11.9091 21.4483 11.5536 21.5746 11.1828 21.5746ZM22.3656 21.5746C22.0892 21.5746 21.8189 21.5043 21.589 21.3726C21.3592 21.2409 21.18 21.0537 21.0742 20.8347C20.9684 20.6157 20.9407 20.3747 20.9947 20.1422C21.0486 19.9097 21.1817 19.6961 21.3772 19.5285C21.5727 19.3609 21.8218 19.2467 22.0929 19.2005C22.3641 19.1542 22.6452 19.178 22.9006 19.2687C23.156 19.3594 23.3743 19.513 23.5279 19.7101C23.6815 19.9072 23.7635 20.139 23.7635 20.376C23.7635 20.6939 23.6162 20.9988 23.3541 21.2236C23.0919 21.4483 22.7364 21.5746 22.3656 21.5746Z" fill="#FEFAFA"/>
</svg>
